P3
# feep.ppm
13 13
255
0 1 0 0 1 1 1 1 1 0 1 0 
1 0 1 1 1 0 0 1 1 8 8 7 
18 18 11 24 23 16 24 23 18 21 19 10 
19 16 8 17 14 8 14 13 11 12 10 6 
7 5 3 0 0 1 0 1 0 0 0 0 
0 0 0 0 0 1 1 1 1 0 0 0 
0 0 0 1 0 1 1 0 1 0 1 1 
1 1 0 0 0 0 0 0 1 0 1 0 
0 1 0 1 1 0 0 0 1 1 1 1 
0 0 1 1 0 0 0 0 0 0 0 1 
1 1 0 0 0 1 11 8 4 26 22 16 
38 36 28 42 40 26 34 34 26 26 26 18 
22 20 14 20 18 14 18 16 12 18 16 12 
20 16 10 20 18 12 24 23 15 27 22 15 
20 17 8 9 6 2 0 1 0 1 0 1 
1 1 1 1 1 0 0 0 1 0 0 1 
0 1 1 1 0 0 1 0 1 0 0 1 
0 1 0 1 0 0 0 0 1 0 1 1 
1 1 1 0 0 0 1 1 0 0 0 0 
0 1 0 0 1 0 4 6 4 14 16 10 
22 22 16 24 22 18 20 21 16 17 16 15 
15 13 11 15 12 10 14 12 10 18 16 10 
22 18 12 22 18 14 16 14 10 6 6 4 
0 0 0 0 0 0 0 0 0 0 0 0 
0 0 0 0 0 0 0 0 0 0 0 0 
1 0 1 1 0 0 0 0 1 0 1 0 
0 0 0 4 2 1 18 17 8 40 36 22 
56 46 28 48 42 24 36 32 18 28 24 16 
20 20 14 18 18 12 14 12 8 11 9 4 
2 2 0 1 0 0 0 0 0 0 0 0 
0 0 0 0 0 0 0 0 0 0 0 0 
0 0 0 0 0 0 0 0 0 0 0 0 
0 0 0 0 0 0 0 0 0 0 0 0 
0 0 0 0 0 0 0 0 0 0 0 0 
0 0 0 0 0 0 0 0 0 0 0 0 
0 0 0 0 0 0 1 1 0 7 6 5 
14 13 9 16 16 11 14 12 10 12 11 6 
10 9 4 9 7 5 7 7 4 5 6 3 
2 2 1 0 0 0 0 0 0 0 0 0 
0 0 0 0 0 0 0 0 0 0 0 0 
0 0 0 0 0 0 0 0 0 0 0 0 
0 0 0 0 0 0 0 0 0 0 0 0 
0 0 0 
